<?xml version="1.0" encoding="UTF-8" standalone="no"?>
<!DOCTYPE svg PUBLIC "-//W3C//DTD SVG 1.1//EN" "http://www.w3.org/Graphics/SVG/1.1/DTD/svg11.dtd">
<svg width="100%" height="100%" viewBox="0 0 831 300" version="1.1" xmlns="http://www.w3.org/2000/svg" xmlns:xlink="http://www.w3.org/1999/xlink" xml:space="preserve" xmlns:serif="http://www.serif.com/" style="fill-rule:evenodd;clip-rule:evenodd;stroke-linejoin:round;stroke-miterlimit:2;">
    <g id="path19" transform="matrix(7.694444,0,0,7.69073,0,0)">
        <path d="M44.786,32.426L44.786,28.647L45.232,28.647L46.273,31.023C46.284,31.049 46.295,31.08 46.309,31.116C46.322,31.153 46.334,31.191 46.347,31.229C46.359,31.268 46.371,31.305 46.383,31.342L46.405,31.342C46.405,31.28 46.404,31.217 46.402,31.152C46.4,31.088 46.399,31.038 46.399,31.001L46.399,28.647L46.851,28.647L46.851,32.426L46.416,32.426L45.37,30.021C45.355,29.985 45.337,29.935 45.315,29.871C45.293,29.806 45.272,29.743 45.254,29.68L45.232,29.68C45.236,29.732 45.238,29.794 45.238,29.865L45.238,32.426L44.786,32.426Z" style="fill:white;fill-rule:nonzero;"/>
    </g>
    <g id="path1" transform="matrix(7.694444,0,0,7.69073,0,0)">
        <rect x="43.564" y="28.647" width="0.468" height="3.779" style="fill:white;fill-rule:nonzero;"/>
    </g>
    <g id="path20" transform="matrix(7.694444,0,0,7.69073,0,0)">
        <path d="M51.547,32.492C51.275,32.492 51.048,32.421 50.864,32.28C50.68,32.139 50.541,31.925 50.446,31.636C50.35,31.349 50.302,30.983 50.302,30.539C50.302,30.096 50.35,29.73 50.446,29.442C50.541,29.153 50.68,28.938 50.864,28.795C51.048,28.652 51.275,28.58 51.547,28.58C51.818,28.58 52.046,28.652 52.229,28.795C52.413,28.938 52.552,29.153 52.646,29.442C52.739,29.73 52.785,30.096 52.785,30.539C52.785,30.983 52.739,31.349 52.646,31.636C52.552,31.925 52.413,32.139 52.229,32.28C52.046,32.421 51.818,32.492 51.547,32.492ZM51.547,32.085C51.671,32.085 51.78,32.056 51.874,31.999C51.968,31.943 52.047,31.856 52.111,31.739C52.175,31.621 52.224,31.475 52.257,31.301C52.29,31.127 52.306,30.919 52.306,30.677L52.306,30.39C52.306,30.152 52.29,29.945 52.257,29.769C52.224,29.593 52.175,29.448 52.111,29.334C52.047,29.221 51.968,29.135 51.874,29.078C51.78,29.021 51.671,28.993 51.547,28.993C51.422,28.993 51.312,29.021 51.216,29.078C51.121,29.135 51.041,29.221 50.977,29.334C50.913,29.448 50.864,29.593 50.831,29.769C50.798,29.945 50.781,30.152 50.781,30.39L50.781,30.677C50.781,30.919 50.798,31.127 50.831,31.301C50.864,31.475 50.913,31.621 50.977,31.739C51.041,31.856 51.121,31.943 51.216,31.999C51.312,32.056 51.422,32.085 51.547,32.085Z" style="fill:white;fill-rule:nonzero;"/>
    </g>
    <g id="path2" transform="matrix(7.694444,0,0,7.69073,0,0)">
        <path d="M47.599,32.426L47.599,28.647L48.557,28.647C48.847,28.647 49.084,28.712 49.268,28.842C49.451,28.972 49.585,29.175 49.669,29.452C49.754,29.729 49.796,30.088 49.796,30.528C49.796,30.968 49.753,31.327 49.666,31.606C49.581,31.885 49.446,32.091 49.262,32.225C49.078,32.359 48.84,32.426 48.546,32.426L47.599,32.426ZM48.067,32.019L48.48,32.019C48.608,32.019 48.724,32.001 48.827,31.964C48.929,31.928 49.018,31.861 49.091,31.766C49.165,31.671 49.22,31.536 49.259,31.362C49.298,31.188 49.317,30.964 49.317,30.693L49.317,30.429C49.317,30.157 49.299,29.933 49.262,29.755C49.225,29.577 49.17,29.437 49.096,29.334C49.023,29.231 48.935,29.16 48.832,29.12C48.73,29.079 48.612,29.059 48.48,29.059L48.067,29.059L48.067,32.019Z" style="fill:white;fill-rule:nonzero;"/>
    </g>
    <g id="path23" transform="matrix(7.694444,0,0,7.69073,0,0)">
        <rect x="61.181" y="28.647" width="0.468" height="3.779" style="fill:white;fill-rule:nonzero;"/>
    </g>
    <g id="path22" transform="matrix(7.694444,0,0,7.69073,0,0)">
        <path d="M59.59,32.492C59.44,32.492 59.302,32.475 59.177,32.443C59.053,32.41 58.946,32.351 58.856,32.266C58.765,32.182 58.695,32.067 58.646,31.922C58.597,31.777 58.572,31.591 58.572,31.364L58.572,31.265L59.028,31.265L59.028,31.375C59.028,31.544 59.046,31.68 59.081,31.785C59.116,31.89 59.174,31.966 59.257,32.013C59.34,32.061 59.449,32.085 59.585,32.085C59.658,32.085 59.724,32.077 59.783,32.06C59.841,32.043 59.894,32.018 59.94,31.983C59.986,31.948 60.024,31.905 60.055,31.851C60.087,31.798 60.111,31.735 60.127,31.661C60.144,31.588 60.152,31.504 60.152,31.409C60.152,31.291 60.131,31.191 60.088,31.108C60.046,31.026 59.989,30.957 59.916,30.902C59.842,30.847 59.76,30.797 59.67,30.753C59.58,30.71 59.487,30.666 59.39,30.624C59.292,30.582 59.199,30.534 59.108,30.481C59.018,30.428 58.937,30.363 58.864,30.286C58.79,30.209 58.733,30.115 58.69,30.005C58.648,29.896 58.627,29.76 58.627,29.599C58.627,29.422 58.653,29.27 58.704,29.142C58.755,29.014 58.826,28.908 58.916,28.826C59.005,28.743 59.109,28.682 59.227,28.641C59.344,28.601 59.467,28.58 59.596,28.58C59.747,28.58 59.881,28.6 60.001,28.638C60.12,28.677 60.221,28.736 60.306,28.817C60.39,28.898 60.455,29.004 60.498,29.134C60.542,29.264 60.564,29.422 60.564,29.61L60.564,29.702L60.113,29.702L60.113,29.604C60.113,29.475 60.097,29.365 60.063,29.273C60.031,29.182 59.977,29.112 59.904,29.065C59.831,29.017 59.733,28.993 59.612,28.993C59.52,28.993 59.436,29.01 59.359,29.045C59.282,29.08 59.221,29.138 59.175,29.219C59.129,29.299 59.106,29.409 59.106,29.549C59.106,29.666 59.127,29.765 59.169,29.846C59.212,29.926 59.269,29.994 59.343,30.049C59.416,30.104 59.497,30.153 59.587,30.195C59.677,30.238 59.771,30.279 59.869,30.319C59.966,30.359 60.058,30.407 60.146,30.462C60.234,30.517 60.316,30.583 60.392,30.66C60.467,30.737 60.525,30.833 60.567,30.949C60.61,31.065 60.631,31.203 60.631,31.364C60.631,31.636 60.587,31.854 60.498,32.019C60.411,32.184 60.289,32.304 60.132,32.379C59.976,32.454 59.796,32.492 59.59,32.492Z" style="fill:white;fill-rule:nonzero;"/>
    </g>
    <g id="path21" transform="matrix(7.694444,0,0,7.69073,0,0)">
        <path d="M56.227,32.426L56.227,28.647L58.142,28.647L58.142,29.059L56.695,29.059L56.695,30.292L57.966,30.292L57.966,30.704L56.695,30.704L56.695,32.019L58.164,32.019L58.164,32.426L56.227,32.426Z" style="fill:white;fill-rule:nonzero;"/>
    </g>
    <g id="path3" transform="matrix(7.694444,0,0,7.69073,0,0)">
        <path d="M53.413,32.426L53.413,28.647L53.859,28.647L54.899,31.023C54.911,31.049 54.923,31.08 54.935,31.116C54.948,31.153 54.961,31.191 54.974,31.229C54.987,31.268 54.999,31.305 55.01,31.342L55.032,31.342C55.032,31.28 55.031,31.217 55.029,31.152C55.027,31.088 55.026,31.038 55.026,31.001L55.026,28.647L55.477,28.647L55.477,32.426L55.043,32.426L53.997,30.021C53.982,29.985 53.964,29.935 53.941,29.871C53.919,29.806 53.899,29.743 53.881,29.68L53.859,29.68C53.863,29.732 53.864,29.794 53.864,29.865L53.864,32.426L53.413,32.426Z" style="fill:white;fill-rule:nonzero;"/>
    </g>
    <g id="path4" transform="matrix(7.694444,0,0,7.69073,0,0)">
        <path d="M62.084,32.426L63.004,28.647L63.566,28.647L64.49,32.426L64.006,32.426L63.758,31.403L62.794,31.403L62.552,32.426L62.084,32.426ZM62.871,31.001L63.68,31.001L63.4,29.763C63.393,29.727 63.384,29.685 63.375,29.639C63.366,29.594 63.356,29.544 63.345,29.491C63.334,29.438 63.324,29.387 63.317,29.337C63.31,29.287 63.301,29.242 63.29,29.203L63.262,29.203C63.255,29.254 63.245,29.313 63.232,29.381C63.219,29.449 63.206,29.517 63.193,29.585C63.181,29.652 63.167,29.712 63.152,29.763L62.871,31.001Z" style="fill:white;"/>
    </g>
    <g id="path5" transform="matrix(7.694444,0,0,7.69073,0,0)">
        <path d="M66.841,32.492C66.43,32.492 66.125,32.332 65.927,32.013C65.729,31.694 65.63,31.202 65.63,30.539C65.63,30.095 65.678,29.729 65.775,29.439C65.873,29.149 66.017,28.934 66.208,28.793C66.398,28.651 66.634,28.58 66.913,28.58C67.093,28.58 67.252,28.61 67.389,28.668C67.526,28.727 67.642,28.814 67.736,28.929C67.829,29.045 67.9,29.189 67.948,29.362C67.995,29.534 68.019,29.734 68.019,29.962L67.568,29.962C67.568,29.804 67.556,29.665 67.532,29.546C67.508,29.427 67.469,29.326 67.416,29.243C67.363,29.161 67.292,29.099 67.205,29.056C67.116,29.014 67.006,28.993 66.874,28.993C66.753,28.993 66.645,29.02 66.549,29.073C66.454,29.126 66.373,29.211 66.307,29.326C66.241,29.441 66.191,29.588 66.159,29.766C66.125,29.944 66.109,30.158 66.109,30.406L66.109,30.693C66.109,31.016 66.137,31.28 66.195,31.485C66.251,31.691 66.336,31.842 66.45,31.939C66.564,32.036 66.703,32.085 66.868,32.085C67.056,32.085 67.2,32.044 67.3,31.961C67.402,31.879 67.472,31.755 67.513,31.59C67.553,31.425 67.573,31.223 67.573,30.985L67.573,30.858L66.797,30.858L66.797,30.473L68.008,30.473L68.008,32.426L67.739,32.426L67.689,32.03C67.633,32.129 67.563,32.213 67.477,32.283C67.391,32.352 67.294,32.405 67.188,32.44C67.081,32.474 66.966,32.492 66.841,32.492Z" style="fill:white;fill-rule:nonzero;"/>
    </g>
    <g id="path6" transform="matrix(7.694444,0,0,7.69073,0,0)">
        <path d="M68.36,32.426L69.28,28.647L69.841,28.647L70.767,32.426L70.282,32.426L70.034,31.403L69.071,31.403L68.828,32.426L68.36,32.426ZM69.148,31.001L69.957,31.001L69.676,29.763C69.669,29.726 69.66,29.685 69.651,29.639C69.642,29.594 69.632,29.544 69.621,29.491C69.61,29.438 69.601,29.387 69.594,29.337C69.587,29.287 69.577,29.242 69.566,29.203L69.538,29.203C69.531,29.254 69.521,29.313 69.508,29.381C69.495,29.449 69.483,29.517 69.47,29.585C69.457,29.652 69.443,29.712 69.428,29.763L69.148,31.001Z" style="fill:white;"/>
    </g>
    <g id="path24" transform="matrix(7.694444,0,0,7.69073,0,0)">
        <path d="M74.675,32.426L74.675,28.647L76.592,28.647L76.592,29.059L75.143,29.059L75.143,30.292L76.415,30.292L76.415,30.704L75.143,30.704L75.143,32.019L76.613,32.019L76.613,32.426L74.675,32.426Z" style="fill:white;fill-rule:nonzero;"/>
    </g>
    <g id="path7" transform="matrix(7.694444,0,0,7.69073,0,0)">
        <path d="M71.202,32.426L71.202,28.647L71.89,28.647L72.446,31.072C72.453,31.109 72.463,31.16 72.475,31.224C72.489,31.288 72.502,31.354 72.514,31.422C72.527,31.489 72.539,31.551 72.55,31.606L72.577,31.606C72.585,31.562 72.595,31.509 72.605,31.446C72.617,31.385 72.629,31.32 72.644,31.254C72.659,31.188 72.67,31.13 72.677,31.078L73.233,28.647L73.916,28.647L73.916,32.426L73.465,32.426L73.465,29.988C73.464,29.945 73.465,29.886 73.466,29.813C73.468,29.74 73.471,29.663 73.472,29.582C73.474,29.501 73.475,29.43 73.475,29.367L73.447,29.367C73.44,29.408 73.431,29.455 73.42,29.508C73.409,29.561 73.398,29.615 73.388,29.669C73.376,29.724 73.365,29.774 73.354,29.818L72.732,32.426L72.369,32.426L71.752,29.818C71.745,29.789 71.735,29.748 71.724,29.694C71.713,29.641 71.703,29.585 71.694,29.527C71.685,29.468 71.675,29.415 71.664,29.367L71.636,29.367C71.64,29.433 71.642,29.506 71.642,29.588C71.642,29.668 71.643,29.745 71.644,29.818C71.646,29.892 71.647,29.949 71.647,29.989L71.647,32.426L71.202,32.426Z" style="fill:white;fill-rule:nonzero;"/>
    </g>
    <g id="path25" transform="matrix(7.694444,0,0,7.69073,0,0)">
        <path d="M80.439,32.426L81.359,28.647L81.92,28.647L82.845,32.426L82.361,32.426L82.113,31.403L81.15,31.403L80.907,32.426L80.439,32.426ZM81.227,31.001L82.036,31.001L81.756,29.763C81.748,29.727 81.74,29.685 81.731,29.639C81.721,29.594 81.711,29.544 81.7,29.491C81.689,29.438 81.68,29.387 81.673,29.337C81.665,29.287 81.656,29.242 81.645,29.203L81.618,29.203C81.611,29.254 81.6,29.313 81.587,29.381C81.574,29.449 81.562,29.517 81.549,29.585C81.536,29.652 81.522,29.712 81.507,29.763L81.227,31.001Z" style="fill:white;fill-rule:nonzero;"/>
    </g>
    <g id="path8" transform="matrix(7.694444,0,0,7.69073,0,0)">
        <path d="M78.012,32.426L78.012,28.647L79.074,28.647C79.345,28.647 79.554,28.695 79.701,28.79C79.849,28.885 79.951,29.011 80.01,29.167C80.068,29.322 80.098,29.499 80.099,29.697C80.098,29.965 80.055,30.189 79.969,30.368C79.882,30.548 79.766,30.678 79.619,30.759L80.263,32.426L79.768,32.426L79.178,30.908L78.48,30.908L78.48,32.426L78.012,32.426ZM78.48,30.5L79.047,30.5C79.252,30.5 79.4,30.432 79.49,30.297C79.58,30.161 79.625,29.974 79.625,29.736C79.625,29.589 79.607,29.465 79.573,29.364C79.537,29.264 79.476,29.188 79.388,29.136C79.3,29.085 79.169,29.059 78.997,29.059L78.48,29.059L78.48,30.5Z" style="fill:white;fill-rule:nonzero;"/>
    </g>
    <g id="path36" transform="matrix(7.694444,0,0,7.69073,0,0)">
        <path d="M60.539,14.342L69.519,14.342L69.247,24.487C69.22,25.387 68.4,25.442 68.373,25.442C68.373,25.442 62.396,25.851 57.973,25.851C54.18,25.851 52.269,23.396 52.269,20.669L52.269,11.613C52.269,8.887 54.18,6.433 57.973,6.433C62.532,6.433 68.373,6.678 68.373,6.678L68.346,11.206L59.529,11.206C58.356,11.206 57.918,11.832 57.918,12.759L57.918,19.523C57.918,20.424 58.356,21.078 59.529,21.078L64.251,21.051L64.279,18.678L60.539,18.405L60.539,14.342Z" style="fill:white;fill-rule:nonzero;"/>
    </g>
    <g id="path35" transform="matrix(7.694444,0,0,7.69073,0,0)">
        <rect x="43.564" y="6.596" width="5.649" height="19.091" style="fill:white;fill-rule:nonzero;"/>
    </g>
    <g id="path34" transform="matrix(7.694444,0,0,7.69073,0,0)">
        <path d="M105.286,32.426L105.286,28.647L105.974,28.647L106.53,31.072C106.537,31.109 106.547,31.16 106.561,31.224C106.573,31.288 106.586,31.354 106.599,31.422C106.612,31.489 106.624,31.551 106.635,31.606L106.663,31.606C106.67,31.562 106.679,31.509 106.689,31.446C106.701,31.385 106.714,31.32 106.728,31.254C106.743,31.188 106.754,31.13 106.761,31.078L107.317,28.647L108,28.647L108,32.426L107.549,32.426L107.549,29.988C107.549,29.945 107.55,29.886 107.552,29.813C107.553,29.74 107.555,29.663 107.557,29.582C107.559,29.501 107.56,29.43 107.56,29.367L107.532,29.367C107.525,29.408 107.516,29.455 107.505,29.508C107.494,29.561 107.483,29.615 107.472,29.669C107.461,29.724 107.45,29.774 107.439,29.818L106.816,32.426L106.453,32.426L105.836,29.818C105.829,29.789 105.82,29.747 105.809,29.694C105.798,29.641 105.788,29.585 105.778,29.527C105.77,29.468 105.76,29.415 105.748,29.367L105.72,29.367C105.724,29.433 105.726,29.506 105.726,29.588C105.726,29.668 105.727,29.745 105.729,29.818C105.731,29.892 105.732,29.949 105.732,29.988L105.732,32.426L105.286,32.426Z" style="fill:white;fill-rule:nonzero;"/>
    </g>
    <g id="path33" transform="matrix(7.694444,0,0,7.69073,0,0)">
        <path d="M102.775,32.426L102.775,28.647L104.691,28.647L104.691,29.059L103.243,29.059L103.243,30.292L104.515,30.292L104.515,30.704L103.243,30.704L103.243,32.019L104.713,32.019L104.713,32.426L102.775,32.426Z" style="fill:white;fill-rule:nonzero;"/>
    </g>
    <g id="path32" transform="matrix(7.694444,0,0,7.69073,0,0)">
        <path d="M100.953,32.426L100.953,29.059L100.094,29.059L100.094,28.647L102.28,28.647L102.28,29.059L101.421,29.059L101.421,32.426L100.953,32.426Z" style="fill:white;fill-rule:nonzero;"/>
    </g>
    <g id="path31" transform="matrix(7.694444,0,0,7.69073,0,0)">
        <path d="M98.751,32.492C98.6,32.492 98.463,32.475 98.338,32.443C98.213,32.41 98.106,32.351 98.016,32.266C97.926,32.182 97.856,32.067 97.807,31.922C97.757,31.777 97.732,31.591 97.732,31.364L97.732,31.265L98.189,31.265L98.189,31.375C98.189,31.544 98.207,31.68 98.242,31.785C98.276,31.89 98.335,31.966 98.417,32.013C98.5,32.061 98.609,32.085 98.745,32.085C98.819,32.085 98.885,32.077 98.943,32.06C99.002,32.043 99.054,32.018 99.1,31.983C99.146,31.948 99.185,31.905 99.216,31.851C99.247,31.798 99.271,31.735 99.288,31.661C99.304,31.588 99.312,31.504 99.312,31.409C99.312,31.291 99.291,31.191 99.249,31.108C99.207,31.026 99.149,30.957 99.075,30.902C99.002,30.847 98.92,30.797 98.831,30.753C98.741,30.71 98.647,30.666 98.549,30.624C98.452,30.582 98.358,30.534 98.269,30.481C98.179,30.428 98.097,30.363 98.024,30.286C97.95,30.209 97.892,30.115 97.85,30.005C97.809,29.896 97.788,29.76 97.788,29.599C97.788,29.422 97.813,29.27 97.864,29.142C97.916,29.014 97.986,28.908 98.076,28.826C98.166,28.743 98.27,28.682 98.387,28.641C98.505,28.601 98.628,28.58 98.757,28.58C98.906,28.58 99.041,28.6 99.161,28.638C99.28,28.677 99.382,28.736 99.466,28.817C99.551,28.898 99.615,29.004 99.659,29.134C99.703,29.264 99.725,29.422 99.725,29.61L99.725,29.702L99.274,29.702L99.274,29.604C99.274,29.475 99.257,29.365 99.224,29.273C99.191,29.182 99.138,29.112 99.064,29.065C98.991,29.017 98.894,28.993 98.773,28.993C98.681,28.993 98.596,29.01 98.519,29.045C98.443,29.08 98.381,29.138 98.335,29.219C98.289,29.299 98.266,29.409 98.267,29.549C98.266,29.666 98.287,29.765 98.33,29.846C98.371,29.926 98.429,29.994 98.503,30.049C98.576,30.104 98.658,30.153 98.748,30.195C98.838,30.238 98.931,30.279 99.029,30.319C99.126,30.359 99.219,30.407 99.307,30.462C99.395,30.517 99.476,30.583 99.552,30.66C99.627,30.737 99.686,30.833 99.728,30.949C99.77,31.065 99.791,31.203 99.792,31.364C99.791,31.636 99.747,31.854 99.659,32.019C99.571,32.184 99.449,32.304 99.293,32.379C99.137,32.454 98.956,32.492 98.751,32.492Z" style="fill:white;fill-rule:nonzero;"/>
    </g>
    <g id="path30" transform="matrix(7.694444,0,0,7.69073,0,0)">
        <path d="M96.152,32.426L96.152,30.869L95.184,28.647L95.679,28.647L96.378,30.33L96.405,30.33L97.116,28.647L97.584,28.647L96.62,30.869L96.62,32.426L96.152,32.426Z" style="fill:white;fill-rule:nonzero;"/>
    </g>
    <g id="path29" transform="matrix(7.694444,0,0,7.69073,0,0)">
        <path d="M93.988,32.492C93.838,32.492 93.7,32.475 93.576,32.443C93.451,32.41 93.343,32.351 93.253,32.266C93.163,32.182 93.094,32.067 93.045,31.922C92.995,31.777 92.97,31.591 92.97,31.364L92.97,31.265L93.427,31.265L93.427,31.375C93.427,31.544 93.444,31.68 93.479,31.785C93.514,31.89 93.573,31.966 93.656,32.013C93.738,32.061 93.847,32.085 93.983,32.085C94.056,32.085 94.122,32.077 94.181,32.06C94.24,32.043 94.292,32.018 94.338,31.983C94.384,31.948 94.423,31.905 94.454,31.851C94.485,31.798 94.509,31.735 94.525,31.661C94.542,31.588 94.55,31.504 94.55,31.409C94.55,31.291 94.529,31.191 94.487,31.108C94.444,31.026 94.386,30.957 94.313,30.902C94.24,30.847 94.158,30.797 94.068,30.753C93.978,30.71 93.884,30.666 93.787,30.624C93.69,30.582 93.597,30.534 93.507,30.481C93.417,30.428 93.335,30.363 93.261,30.286C93.188,30.209 93.131,30.115 93.089,30.005C93.046,29.896 93.025,29.76 93.025,29.599C93.025,29.422 93.051,29.27 93.103,29.142C93.154,29.014 93.224,28.908 93.314,28.826C93.404,28.743 93.508,28.682 93.626,28.641C93.743,28.601 93.865,28.58 93.994,28.58C94.144,28.58 94.279,28.6 94.398,28.638C94.518,28.677 94.62,28.736 94.705,28.817C94.789,28.898 94.853,29.004 94.897,29.134C94.941,29.264 94.963,29.422 94.963,29.61L94.963,29.702L94.511,29.702L94.511,29.604C94.511,29.475 94.495,29.365 94.462,29.273C94.429,29.182 94.375,29.112 94.302,29.065C94.229,29.017 94.132,28.993 94.011,28.993C93.919,28.993 93.835,29.01 93.757,29.045C93.68,29.08 93.619,29.138 93.573,29.219C93.527,29.299 93.504,29.409 93.504,29.549C93.504,29.666 93.525,29.765 93.568,29.846C93.61,29.926 93.667,29.994 93.74,30.049C93.814,30.104 93.895,30.153 93.986,30.195C94.076,30.238 94.169,30.279 94.266,30.319C94.364,30.359 94.456,30.407 94.545,30.462C94.633,30.517 94.714,30.583 94.789,30.66C94.865,30.737 94.923,30.833 94.966,30.949C95.008,31.065 95.029,31.203 95.029,31.364C95.029,31.636 94.985,31.854 94.897,32.019C94.809,32.184 94.687,32.304 94.531,32.379C94.374,32.454 94.194,32.492 93.988,32.492Z" style="fill:white;fill-rule:nonzero;"/>
    </g>
    <g id="path28" transform="matrix(7.694444,0,0,7.69073,0,0)">
        <path d="M90.46,32.492C90.049,32.492 89.744,32.332 89.546,32.013C89.347,31.694 89.248,31.202 89.248,30.539C89.248,30.095 89.297,29.729 89.394,29.439C89.491,29.149 89.635,28.934 89.826,28.793C90.017,28.651 90.252,28.58 90.531,28.58C90.711,28.58 90.87,28.61 91.007,28.668C91.144,28.727 91.26,28.814 91.354,28.929C91.448,29.045 91.518,29.189 91.566,29.362C91.614,29.534 91.637,29.734 91.637,29.962L91.186,29.962C91.186,29.804 91.174,29.665 91.15,29.546C91.126,29.427 91.088,29.326 91.035,29.243C90.981,29.161 90.911,29.099 90.823,29.056C90.735,29.014 90.624,28.993 90.493,28.993C90.372,28.993 90.263,29.02 90.167,29.073C90.072,29.126 89.992,29.211 89.926,29.326C89.859,29.441 89.81,29.588 89.777,29.766C89.744,29.944 89.727,30.158 89.727,30.406L89.727,30.693C89.727,31.016 89.756,31.28 89.813,31.485C89.87,31.691 89.955,31.842 90.069,31.939C90.182,32.036 90.322,32.085 90.487,32.085C90.674,32.085 90.818,32.044 90.919,31.961C91.02,31.879 91.091,31.755 91.131,31.59C91.171,31.425 91.191,31.223 91.191,30.985L91.191,30.858L90.416,30.858L90.416,30.473L91.627,30.473L91.627,32.426L91.357,32.426L91.307,32.03C91.252,32.129 91.181,32.213 91.096,32.283C91.009,32.352 90.912,32.405 90.806,32.44C90.7,32.474 90.584,32.492 90.46,32.492Z" style="fill:white;fill-rule:nonzero;"/>
    </g>
    <g id="path27" transform="matrix(7.694444,0,0,7.69073,0,0)">
        <path d="M86.556,32.426L86.556,28.647L87.002,28.647L88.042,31.023C88.054,31.049 88.066,31.08 88.078,31.116C88.091,31.153 88.104,31.191 88.117,31.229C88.13,31.268 88.142,31.305 88.153,31.342L88.175,31.342C88.175,31.28 88.174,31.217 88.172,31.152C88.17,31.088 88.169,31.038 88.169,31.001L88.169,28.647L88.62,28.647L88.62,32.426L88.186,32.426L87.14,30.021C87.125,29.985 87.107,29.935 87.084,29.871C87.062,29.806 87.042,29.743 87.024,29.68L87.002,29.68C87.006,29.732 87.007,29.794 87.007,29.865L87.007,32.426L86.556,32.426Z" style="fill:white;fill-rule:nonzero;"/>
    </g>
    <g id="path26" transform="matrix(7.694444,0,0,7.69073,0,0)">
        <rect x="85.334" y="28.647" width="0.468" height="3.779" style="fill:white;fill-rule:nonzero;"/>
    </g>
    <g id="path9" transform="matrix(7.694444,0,0,7.69073,0,0)">
        <path d="M83.511,32.426L83.511,29.059L82.653,29.059L82.653,28.647L84.839,28.647L84.839,29.059L83.979,29.059L83.979,32.426L83.511,32.426Z" style="fill:white;fill-rule:nonzero;"/>
    </g>
    <g id="path10" transform="matrix(7.694444,0,0,7.69073,0,0)">
        <path d="M77.897,25.687L72.219,25.687L72.219,6.596L83.71,6.596C87.531,6.596 89.443,8.969 89.443,11.695L89.443,14.723C89.443,16.605 88.569,18.241 86.849,19.087L89.715,25.687L83.82,25.687L81.254,19.851L77.897,19.851L77.897,25.687ZM83.82,13.932L83.82,12.678C83.82,11.75 83.382,11.123 82.209,11.123L77.897,11.123L77.897,15.514L82.209,15.514C83.382,15.514 83.82,14.86 83.82,13.932Z" style="fill:white;"/>
    </g>
    <g id="path11" transform="matrix(7.694444,0,0,7.69073,0,0)">
        <path d="M106.744,11.313L97.9,11.313C97.328,11.313 97.219,11.341 97.219,11.914L97.219,12.132C97.219,12.541 97.519,12.623 98.091,12.732C98.091,12.732 103.524,13.714 103.851,13.769C107.399,14.424 108,15.814 108,18.597L108,20.778C108,24.187 106.417,25.851 101.395,25.851C98.037,25.851 91.623,25.36 91.623,25.36L91.65,20.942L100.658,20.942C101.832,20.942 102.295,20.696 102.295,19.878L102.295,19.333C102.295,19.087 102.268,18.76 101.804,18.678C101.477,18.597 97.328,17.86 97.109,17.833C93.233,17.15 91.404,16.905 91.404,13.25L91.404,11.451C91.404,8.068 93.097,6.433 98.119,6.433C101.477,6.433 106.771,6.923 106.771,6.923L106.744,11.313Z" style="fill:white;fill-rule:nonzero;"/>
    </g>
    <g id="path12" transform="matrix(7.694444,0,0,7.69073,0,0)">
        <path d="M0,13.992L0,6.516L17.271,0L17.271,7.476L0,13.992ZM34.541,13.992L34.541,6.516L17.271,0L17.271,7.477L34.541,13.992Z" style="fill:rgb(116,4,0);fill-rule:nonzero;"/>
    </g>
    <g id="path13" transform="matrix(7.694444,0,0,7.69073,0,0)">
        <path d="M0,6.516L0,13.992L17.271,20.508L17.271,13.033L0,6.516Z" style="fill:rgb(237,39,29);fill-rule:nonzero;"/>
    </g>
    <g id="path14" transform="matrix(7.694444,0,0,7.69073,0,0)">
        <path d="M34.541,6.516L34.541,13.992L17.271,20.508L17.271,13.033L34.541,6.516Z" style="fill:rgb(164,18,12);fill-rule:nonzero;"/>
    </g>
    <g id="path15" transform="matrix(7.694444,0,0,7.69073,0,0)">
        <path d="M0,15.766L0,23.242L17.271,29.758L17.271,22.282L0,15.766Z" style="fill:rgb(132,216,144);fill-rule:nonzero;"/>
    </g>
    <g id="path16" transform="matrix(7.694444,0,0,7.69073,0,0)">
        <path d="M34.541,15.766L34.541,23.242L17.271,29.758L17.271,22.282L34.541,15.766Z" style="fill:rgb(59,150,69);fill-rule:nonzero;"/>
    </g>
    <g id="path17" transform="matrix(7.694444,0,0,7.69073,0,0)">
        <path d="M0,25.016L0,32.492L17.271,39.008L17.271,31.532L0,25.016Z" style="fill:rgb(0,145,200);fill-rule:nonzero;"/>
    </g>
    <g id="path18" transform="matrix(7.694444,0,0,7.69073,0,0)">
        <path d="M34.541,25.016L34.541,32.492L17.271,39.008L17.271,31.532L34.541,25.016Z" style="fill:rgb(1,72,138);fill-rule:nonzero;"/>
    </g>
</svg>
