<?xml version="1.0" encoding="UTF-8" standalone="no"?>
<!DOCTYPE svg PUBLIC "-//W3C//DTD SVG 1.1//EN" "http://www.w3.org/Graphics/SVG/1.1/DTD/svg11.dtd">
<svg width="100%" height="100%" viewBox="0 0 266 301" version="1.1" xmlns="http://www.w3.org/2000/svg" xmlns:xlink="http://www.w3.org/1999/xlink" xml:space="preserve" xmlns:serif="http://www.serif.com/" style="fill-rule:evenodd;clip-rule:evenodd;stroke-linejoin:round;stroke-miterlimit:2;">
    <g id="path12" transform="matrix(7.694444,0,0,7.69073,0,0)">
        <path d="M0,13.992L0,6.516L17.271,0L17.271,7.476L0,13.992ZM34.541,13.992L34.541,6.516L17.271,0L17.271,7.477L34.541,13.992Z" style="fill:rgb(116,4,0);fill-rule:nonzero;"/>
    </g>
    <g id="path13" transform="matrix(7.694444,0,0,7.69073,0,0)">
        <path d="M0,6.516L0,13.992L17.271,20.508L17.271,13.033L0,6.516Z" style="fill:rgb(237,39,29);fill-rule:nonzero;"/>
    </g>
    <g id="path14" transform="matrix(7.694444,0,0,7.69073,0,0)">
        <path d="M34.541,6.516L34.541,13.992L17.271,20.508L17.271,13.033L34.541,6.516Z" style="fill:rgb(164,18,12);fill-rule:nonzero;"/>
    </g>
    <g id="path15" transform="matrix(7.694444,0,0,7.69073,0,0)">
        <path d="M0,15.766L0,23.242L17.271,29.758L17.271,22.282L0,15.766Z" style="fill:rgb(132,216,144);fill-rule:nonzero;"/>
    </g>
    <g id="path16" transform="matrix(7.694444,0,0,7.69073,0,0)">
        <path d="M34.541,15.766L34.541,23.242L17.271,29.758L17.271,22.282L34.541,15.766Z" style="fill:rgb(59,150,69);fill-rule:nonzero;"/>
    </g>
    <g id="path17" transform="matrix(7.694444,0,0,7.69073,0,0)">
        <path d="M0,25.016L0,32.492L17.271,39.008L17.271,31.532L0,25.016Z" style="fill:rgb(0,145,200);fill-rule:nonzero;"/>
    </g>
    <g id="path18" transform="matrix(7.694444,0,0,7.69073,0,0)">
        <path d="M34.541,25.016L34.541,32.492L17.271,39.008L17.271,31.532L34.541,25.016Z" style="fill:rgb(1,72,138);fill-rule:nonzero;"/>
    </g>
</svg>
